<svg width="96" height="85" viewBox="0 0 96 85" fill="none" xmlns="http://www.w3.org/2000/svg">
<path d="M58.3144 60.9261C58.19 63.0403 53.3657 61.1301 52.6181 60.8287C46.7148 58.4491 45.0999 49.5951 44.2422 43.9334M44.2422 43.9334C44.2305 43.8561 44.2189 43.7793 44.2074 43.7032C42.8805 34.8759 43.0583 25.4446 44.0857 16.6091C44.589 12.2805 45.8263 8.04997 45.8263 3.67062C45.8263 2.26712 45.2297 3.36108 44.7795 4.2792C41.9683 10.013 39.6272 16.532 37.7565 22.6341C35.5747 29.7507 33.075 36.7382 30.8551 43.8371C30.4776 45.0443 30.0563 46.2888 29.5885 47.544M44.2422 43.9334C43.78 44.0471 43.318 44.1609 42.8564 44.2753C38.4536 45.3657 34.0264 46.4759 29.5885 47.544M44.2422 43.9334C48.6433 42.8509 53.0641 41.7774 57.365 40.3438C59.1352 39.7537 60.8205 39.2362 62.6962 39.2362M29.5885 47.544C27.837 52.2438 25.4337 57.0935 22.2376 60.6948C19.3614 63.9356 15.6114 66.2145 11.2588 66.7685C8.33168 67.141 4.22109 65.8605 3.24983 62.6788C2.42346 59.9717 3.78067 57.1299 5.36769 55.035C7.45717 52.2769 11.5884 51.5066 14.7886 50.8601C19.7225 49.8634 24.6621 48.7297 29.5885 47.544ZM65.7634 5.93453C65.7634 15.6549 64.833 25.3434 65.1305 35.0856C65.2821 40.0492 65.7634 45.0056 65.7634 49.9716M86.3676 6.35312C84.633 8.97275 82.3808 11.2094 80.2818 13.5344C77.2655 16.8755 74.3505 20.3033 71.2991 23.6125C71.0866 23.843 66.6102 29.354 66.6982 29.3575C69.4323 29.4669 71.953 29.304 74.6828 29.9418C80.7104 31.3501 86.8137 35.6493 89.8974 41.0667C93.6302 47.6242 93.8651 56.1393 91.2971 63.1095C88.0129 72.024 79.9807 77.0519 71.2504 79.8212C63.2878 82.347 52.0895 82.2057 45.3613 76.6079C42.3541 74.1059 40.5246 71.0973 38.8252 67.6983" stroke="url(#paint0_linear_270_108)" stroke-width="5.94477" stroke-linecap="round"/>
<defs>
<linearGradient id="paint0_linear_270_108" x1="48" y1="3" x2="48" y2="81.394" gradientUnits="userSpaceOnUse">
<stop stop-color="#FFB539"/>
<stop offset="1" stop-color="#92E3E7"/>
</linearGradient>
</defs>
</svg>
