<svg width="720" height="188" viewBox="0 0 720 188" fill="none" xmlns="http://www.w3.org/2000/svg">
<path d="M86.5053 154.628C84.3804 158.379 82.8405 153.526 82.8635 150.923C82.9221 144.295 86.023 134.738 87.8091 129.233L87.9265 128.871C90.4132 121.202 94.1344 110.818 97.8482 100.999M97.8482 100.999C100.498 93.9913 103.145 87.2715 105.336 82.0313C112.991 63.7256 122.438 48.5222 134.426 32.9425C137.36 29.1293 140.322 25.3367 143.131 21.4311C143.61 20.765 146.622 17.2415 143.575 20.108C124.225 38.3132 107.992 58.812 91.1242 79.2086C83.5602 88.3551 75.6017 97.3736 67.0835 105.82M97.8482 100.999C87.724 103.183 77.492 104.508 67.0835 105.82M97.8482 100.999C108.49 98.7028 119.013 95.4575 129.496 90.279C134.208 87.9516 139.456 85.12 144.661 81.8534M67.0835 105.82C55.0266 117.775 41.8485 128.584 27.0816 136.986C23.5521 138.994 5.49921 148.221 4.07604 138.53C3.28053 133.113 8.91504 127.512 12.2035 124.063C21.2485 114.577 31.6552 110.997 44.4024 108.935C52.0704 107.695 59.6223 106.761 67.0835 105.82ZM144.661 81.8534C155.231 75.2209 165.63 66.7952 171.022 57.1561C171.845 55.6848 172.377 53.9844 170.978 52.6574C167.063 48.947 161.439 54.4152 158.897 57.0679C155.123 61.0067 144.519 73.3745 144.661 81.8534ZM144.661 81.8534C144.696 83.9462 145.386 85.802 146.995 87.2357C154.609 94.0219 166.891 81.4639 174.797 81.9872C177.655 82.1765 165.95 111.777 165.204 114.713C164.171 118.776 163.524 122.881 167.158 125.828C173.81 131.221 183.161 123.328 188.168 119.102L188.298 118.991C205.628 104.366 220.228 83.1636 228.58 62.1841C229.844 59.01 232 54.9757 232 51.4225M248.196 4C240.222 30.2216 230.343 55.7263 221.195 81.5494C217.39 92.2898 213.097 105.226 215.901 116.718C222.363 143.2 245.919 111.38 253 100.959M203 51C222.229 51 242.19 49.5601 261 46M405 20.6095C393.137 9.89455 371.617 20.3538 360.206 26.8411C332.086 42.8268 315.667 87.3624 321 118.801C330.67 175.8 385.73 126.506 398.303 95.118M398.303 95.118C401.847 86.2705 402.015 78.8456 396.839 75.6251C389.208 70.8764 372.512 78.4181 375.019 88.7114C377.078 97.1647 391.92 94.9957 398.303 95.118ZM398.303 95.118C398.348 95.1189 398.392 95.1198 398.436 95.1209C412.638 95.4729 388.641 138.562 401.807 148M462.191 72.9323C461.666 72.1021 460.19 68.4032 459.254 68.1491C451.377 66.0103 437.337 83.6194 433.718 88.0791C429.326 93.4913 422.099 103.483 424.464 111.375C427.173 120.414 438.404 112.632 442.126 109.382C450.801 101.808 457.688 91.7022 460.5 80.5057C463.153 69.9403 455.287 102.93 459.076 113.147C463.491 125.05 484.63 94.5566 486.926 91.3565C489.015 88.4452 491.13 85.4319 493.203 82.3299M493.203 82.3299C501.701 69.6165 509.501 55.4146 511.974 40.6457C512.357 38.3589 512.33 28.5881 508.637 27.669C503.727 26.447 496.198 58.0106 495.557 61.5058C494.482 67.3702 493.337 74.8516 493.203 82.3299ZM493.203 82.3299C493.047 91.0798 494.277 99.8254 498.627 105.972C503.825 113.316 515.622 104.129 525.065 94.4439M525.065 94.4439C531.385 87.9609 536.652 81.2544 538.178 79.1328C541.95 73.8887 565.788 37.6894 554.861 31.6108C545.439 26.3693 529.086 73.4706 527.767 79.0442C527.005 82.2686 525.735 88.1108 525.065 94.4439ZM525.065 94.4439C523.951 104.967 524.493 116.846 531.771 120.321C543.801 126.066 557.73 100.374 563.536 93.4381C564.62 92.1436 565.062 92.3168 566.473 91.7551C571.353 89.8118 576.028 86.9727 580.302 83.6904M580.302 83.6904C582.916 81.6825 585.38 79.5087 587.649 77.2726C589.517 75.4324 608.35 54.3965 598.149 53.2681C587.652 52.1069 582.544 73.8083 580.876 80.8962L580.843 81.0372C580.653 81.8432 580.47 82.7351 580.302 83.6904ZM580.302 83.6904C578.269 95.2433 578.413 116.064 595.123 106.238C611.126 96.8268 623.914 80.3807 630.181 63.1002C632.167 57.6233 634.167 51.3225 635.407 44.8496M635.407 44.8496C637.021 36.4258 637.346 27.7104 634.674 20.1399C632.466 13.885 627.575 18.3019 624.975 21.9558C619.139 30.1579 629.295 36.4948 633.74 42.373C634.349 43.1789 634.904 44.0052 635.407 44.8496ZM635.407 44.8496C641.421 54.9294 640.231 67.5906 639.479 78.9113C639.254 82.2888 633.275 115.248 643.705 109.161C655.918 102.034 661.404 83.8274 665.406 71.2789M665.406 71.2789C665.41 71.269 665.413 71.2592 665.416 71.2493C665.991 69.4474 667.429 63.9603 666.839 65.7575C666.26 67.5237 665.785 69.3776 665.406 71.2789ZM665.406 71.2789C664.317 76.7486 664.026 82.6102 664.348 87.902C664.586 91.8144 665.605 102.996 672.089 101.897C684.35 99.8198 697.082 84.5825 703.498 74.9696C707.39 69.1382 709.829 62.3196 713.909 56.634C717.296 51.9129 715.674 68.2165 715.154 73.9953C712.87 99.4029 703.324 125.744 687.121 146.356M687.121 146.356C676.797 159.489 663.771 170.297 648.199 177.056C631.016 184.513 611.484 185.723 593.255 181.839C583.562 179.773 563.762 174.077 560.956 162.13C558.475 151.569 570.061 142.13 578.04 138.037C599.757 126.895 625.761 128.904 648.777 133.918C662.021 136.803 674.495 141.838 687.121 146.356ZM687.121 146.356C693.74 148.725 700.401 150.951 707.235 152.652" stroke="white" stroke-width="7" stroke-linecap="round"/>
</svg>
