<svg width="1250" height="266" viewBox="0 0 1250 266" fill="none" xmlns="http://www.w3.org/2000/svg">
<path d="M8.17139 258.477C17.7319 227.827 46.8037 206.504 72.0877 188.956C108.741 163.518 147.122 140.857 183.307 114.632C213.347 92.8614 246.559 68.5221 261.301 33.102C270.385 11.2774 261.335 -0.00108337 239.284 13.3534C199.394 37.5121 170.01 81.9391 143.81 119.236C120.129 152.946 96.8263 191.677 86.0986 231.79C84.7772 236.73 81.2504 246.482 84.3639 251.672C89.1633 259.671 106.845 247.498 110.718 245.2C138.561 228.68 161.432 205.651 188.445 188.022C199.821 180.598 222.94 161.824 237.95 164.404C246.089 165.803 227.205 209.364 225.14 214.91C221.034 225.937 217.505 241.86 233.146 244.733C248.856 247.618 268.435 232.781 279.849 224.25C298.432 210.362 314.024 192.594 331.356 177.214C342.827 167.034 347.239 164.213 338.428 181.217C330.82 195.898 306.339 226.104 321.481 242.731C337.818 260.67 371.618 243.685 387.399 233.724C405.922 222.034 423.005 204.647 431.033 183.886C435.374 172.659 428.453 151.949 415.688 148.392C402.83 144.808 379.757 161.395 377.925 174.478C374.885 196.194 405.766 185.762 415.554 182.018C446.366 170.23 474.588 149.485 500.287 129.177C530.356 105.414 565.374 75.1691 581.016 39.3068C584.488 31.347 590.358 5.87541 573.143 14.6878C540.761 31.2645 521.273 74.0306 506.025 104.824C492.416 132.306 480.119 160.053 474.867 190.424C472.495 204.139 466.03 228.113 486.009 210.973C509.841 190.528 529.243 163.277 560.734 153.862C577.212 148.936 599.669 150.548 604.634 170.409C610.845 195.25 596.067 226.708 577.413 242.731C566.178 252.383 540.771 254.584 551.393 232.724C565.812 203.048 603.743 188.631 630.054 172.61C662.731 152.713 698.481 131.584 724.861 103.423C734.368 93.2749 748.939 77.905 749.147 62.725C749.307 51.0061 744.596 47.9549 735.336 56.5202C709.061 80.8245 694.078 120.464 680.026 152.528C674.399 165.368 669.288 178.482 664.414 191.625C662.334 197.235 656.35 207.866 657.475 214.243C657.878 216.525 688.755 186.374 690.701 184.353C711.358 162.902 732.552 141.487 764.091 141.052C829.475 140.153 795.044 223.936 753.95 236.727C746.997 238.891 734.329 234.807 738.205 225.118C746.014 205.595 782.543 195.218 799.853 188.423C822.604 179.491 844.244 170.244 864.97 157.065C875.03 150.667 884.898 140.442 895.927 135.715C898.796 134.485 892.58 140.985 890.857 143.588C880.505 159.216 870.582 175.833 866.304 194.294C864.49 202.122 858.904 225.43 872.843 226.852C889.116 228.513 906.704 215.5 918.878 206.703C937.15 193.501 954.06 178.031 970.518 162.669C972.365 160.946 981.557 173.904 985.53 175.813C1005.05 185.194 1029.59 171.753 1044.71 159.867C1051.38 154.622 1075.95 134.749 1063.12 124.239C1049.44 113.027 1022.1 123.737 1010.15 132.846C996.59 143.177 983.627 165.188 981.46 182.284C979.923 194.411 986.937 211.635 998.407 217.112C1022.28 228.509 1051.53 209.597 1071.6 198.297C1097.99 183.44 1123.56 165.722 1140.52 140.118C1143.59 135.475 1161.48 107.618 1150.12 103.156C1142.31 100.087 1131.67 109.698 1128.97 116.3C1122.98 130.983 1134.39 155.941 1138.52 170.142C1143.38 186.88 1155.41 211.329 1149.19 228.987C1144.44 242.483 1124.9 250.224 1113.3 239.929C1098.91 227.158 1125.51 203.025 1135.31 197.029C1158.56 182.81 1187.65 179.996 1212.31 168.407C1215.83 166.753 1251.88 139.958 1239.13 133.58" stroke="white" stroke-width="15" stroke-linecap="round"/>
</svg>
