<svg width="537" height="163" viewBox="0 0 537 163" fill="none" xmlns="http://www.w3.org/2000/svg">
<path d="M81.8592 35.1983C80.4992 36.7983 79.3933 38.6397 79.074 40.7689C76.0611 60.8547 76.709 81.813 75.3603 102.045C73.8114 125.278 73.0522 149.866 46.7855 157.956C35.9272 161.301 11.0198 161.615 5.10975 149.394C-2.79003 133.059 12.8813 112.439 29.1456 110.813C48.6267 108.865 67.1253 118.62 86.8108 117.106C101.795 115.953 120.48 107.795 124.928 92.3993C125.041 92.0071 127.412 83.097 125.856 83.2699C121.423 83.7624 121.379 100.103 121.936 103.076C125.477 121.962 144.478 123.235 153.193 106.532C157.292 98.676 156.435 88.5661 152.883 80.6909C151.26 77.0915 149.22 73.7807 145.869 77.132C139.563 83.4375 143.869 96.9562 153.141 97.6604C165.664 98.6115 172.781 86.2234 181.716 79.9688C184.898 77.7416 187.121 102.93 188.112 106.068C192.214 119.059 202.982 114.879 210.188 106.48C216.816 98.7543 217.656 91.118 221.329 82.5478C221.495 82.1585 222.686 92.925 222.979 94.9267C223.677 99.6854 224.038 110.383 228.962 112.979C236.636 117.025 244.778 107.219 248.15 101.941C261.105 81.659 262.63 60.2873 260.838 36.8489C260.118 27.4298 258.555 16.8251 252.07 9.35729C235.618 -9.58667 208.633 18.0428 214.778 36.952C219.392 51.1488 232.099 57.4804 246.293 57.4804C259.354 57.4804 271.878 53.2932 285.029 55.211C301.941 57.6774 290.8 78.9218 289.31 89.3562C287.858 99.5197 297.606 107.344 307.156 104.417C315.723 101.792 324.177 95.1691 326.756 86.2615C327.279 84.4534 327.891 73.5483 327.891 78.9372C327.891 80.2691 326.751 107.045 332.584 101.941C340.942 94.6286 343.936 78.0103 354.815 73.7794C362.578 70.7604 362.677 86.8456 364.099 91.213C368.168 103.71 379.775 107.037 391.333 102.457C401.046 98.6086 418.342 85.5262 419.598 74.3983C420.148 69.5263 416.138 65.0379 411.139 67.2804C402.038 71.3633 389.764 84.3954 387.722 94.4109C386.737 99.2414 391.12 108.132 397.006 107.409C405.196 106.403 410.768 94.6643 414.75 88.7373C415.288 87.9362 422.35 76.4497 422.59 79.9688C422.977 85.6482 423.435 92.544 426.51 97.5057C435.704 112.342 463.056 92.0316 470.764 85.7973C483.102 75.8182 504.3 61.9628 501.815 43.5025C499.498 26.289 481.651 15.6896 470.145 32.6194C456.56 52.6096 466.638 94.2964 488.92 105.604C505.137 113.833 518.652 104.573 534 100.188" stroke="white" stroke-width="4.80873" stroke-linecap="round"/>
</svg>
